<svg width="1200" height="800" viewBox="0 0 1200 800" fill="none" xmlns="http://www.w3.org/2000/svg">
<path d="M590.122 237.705C488.774 242.905 408.182 327.668 408.182 431.462C408.182 466.481 417.356 499.333 433.404 527.693L413.968 565.437C387.322 527.653 371.645 481.408 371.645 431.462C371.645 303.909 473.883 200.495 600 200.495C601.803 200.495 603.601 200.517 605.392 200.558L638.378 133.333H708.846V228.37C780.03 267.482 828.355 343.766 828.355 431.46C828.355 559.016 726.117 662.427 600 662.427C561.505 662.427 525.234 652.793 493.417 635.775L509.486 602.557C536.448 617.178 567.265 625.471 600 625.471C705.937 625.471 791.818 538.608 791.818 431.46C791.818 364.494 758.27 305.451 707.247 270.583V454.199L642.852 393.288V254.123L563.325 442.997H642.852V412.678L717.407 482.763L640.367 541.91V510.597H535.491L466.409 666.667L380.92 664.993L590.122 237.705Z" fill="black"/>
<path d="M707.12 563.404H640.288L707.12 506.151V563.404Z" fill="black"/>
</svg>
