<svg width="458" height="534" viewBox="0 0 458 534" fill="none" xmlns="http://www.w3.org/2000/svg">
<g id="avenger-logo">
<path id="Vector" d="M219.122 104.705C117.774 109.905 37.1816 194.668 37.1816 298.462C37.1816 333.481 46.3558 366.333 62.4035 394.693L42.9681 432.437C16.3217 394.653 0.645081 348.408 0.645081 298.462C0.645081 170.909 102.883 67.4953 229 67.4953C230.803 67.4953 232.601 67.5168 234.392 67.5575L267.378 0.333344H337.846V95.3699C409.03 134.482 457.355 210.766 457.355 298.46C457.355 426.016 355.117 529.427 229 529.427C190.505 529.427 154.234 519.793 122.417 502.775L138.486 469.557C165.448 484.178 196.265 492.471 229 492.471C334.937 492.471 420.818 405.608 420.818 298.46C420.818 231.494 387.27 172.451 336.247 137.583V321.199L271.852 260.288V121.123L192.325 309.997H271.852V279.678L346.407 349.763L269.367 408.91V377.597H164.491L95.4087 533.667L9.91986 531.993L219.122 104.705Z" fill="black"/>
<path id="Vector_2" d="M336.12 430.404H269.288L336.12 373.151V430.404Z" fill="black"/>
</g>
</svg>
